<svg xmlns="http://www.w3.org/2000/svg" viewBox="0 0 51 60" width="51" height="60">
	<style>
		tspan { white-space:pre }
		.shp0 { opacity: 0.792;fill: #ffffff } 
	</style>
	<path id="Path 0" fill-rule="evenodd" class="shp0" d="M0 0L28 0L28 30L22 30L22 5L17 5L17 30L11 30L11 5L5 5L5 30L0 30L0 0ZM41.2 -0.03C44.55 -0.05 46.05 0.53 48 2.55C49.78 4.41 50.5 6.27 50.5 9C50.5 11.75 49.79 13.57 48 15.4C46.63 16.81 44.38 18.15 43 18.39C41.63 18.63 39.04 18.18 37.25 17.41C35.46 16.63 33.55 15.1 33 14C32.45 12.9 32.02 10.4 32.05 8.45C32.08 6.1 32.9 4.09 34.5 2.45C36.3 0.62 37.99 -0.01 41.2 -0.03ZM57 19L59.5 19C61.64 19 62.11 19.59 62.75 23.12C63.16 25.38 63.84 27.41 64.25 27.62C64.66 27.83 65.22 25.98 65.5 23.5C65.94 19.5 66.28 19 71 19L71 29.5C71 39.33 70.87 40 69 40C67.52 40 66.96 39.28 66.7 34.5L66.35 37.25C66.1 39.2 65.49 39.92 64.25 39.74C63.22 39.58 62.24 38.25 61.24 33.5L61.12 36.75C61.03 39.29 60.57 40 59 40C57.13 40 57 39.33 57 29.5L57 19ZM75.5 19C76.74 19 77 20.83 77 29.5C77 38.17 76.74 40 75.5 40C74.26 40 74 38.17 74 29.5C74 20.83 74.26 19 75.5 19ZM84.97 19.03C85.81 19.04 87.3 19.83 88.28 20.78C89.26 21.72 90.05 23.29 90.03 24.25C90.01 25.32 89.23 26 88 26C86.89 26 86 25.33 86 24.5C86 23.68 85.44 23.15 84.75 23.33C83.96 23.54 83.41 25.91 83.25 29.83C83.05 34.76 83.3 36 84.5 36C85.33 36 86 35.11 86 34C86 32.9 85.55 32 85 32C84.45 32 84 31.1 84 30C84 28.44 84.67 28 87 28C89.89 28 90 28.17 90 32.5C90 35.51 89.42 37.52 88.25 38.59C87.29 39.46 85.39 40.02 84.02 39.84C82.63 39.65 80.97 38.41 80.23 37C79.41 35.43 79.05 32.12 79.28 28.13C79.55 23.29 80.1 21.43 81.54 20.38C82.59 19.62 84.14 19.01 84.97 19.03ZM93.84 19.19C95.02 19.42 95.57 20.74 95.75 23.76C95.89 26.09 96.45 28 97 28C97.55 28 98.11 26.09 98.25 23.76C98.44 20.6 98.95 19.45 100.25 19.26C101.82 19.03 102 20.07 102 29.5C102 39.33 101.87 40 100 40C98.3 40 98 39.33 98 35.5C98 33.02 97.55 31 97 31C96.45 31 96 33.02 96 35.5C96 39.33 95.7 40 94 40C92.12 40 92.01 39.36 92.09 29.43C92.17 20.14 92.38 18.89 93.84 19.19ZM118 19L119.63 25.5L120.81 22.25C121.47 20.46 122.56 18.99 123.25 18.97C123.94 18.96 124.82 19.29 125.22 19.72C125.61 20.15 125.05 22.75 123.97 25.5C122.89 28.25 122 32.64 122 35.25C122 39.33 121.72 40 120 40C118.31 40 118 39.33 118 35.75C118.01 33.41 117.28 29.48 116.38 27C115.01 23.23 114.36 22.54 112.37 22.75C110.08 22.99 110 23.29 110 31.5C110 38.39 109.72 40 108.5 40C107.28 40 107 38.39 107 31.5C107 23.67 106.84 23 105 23C103.9 23 102.92 22.4 102.83 21.67C102.74 20.93 103.04 20.04 103.49 19.67C103.95 19.31 107.4 19.01 118 19ZM137.28 19.19C140.37 19.42 141.55 19.96 141.74 21.25C141.94 22.59 141.29 23 139 23C136.47 23 136 23.39 136 25.5C136 27.33 136.53 28 138 28C139.33 28 140 28.67 140 30C140 31.33 139.33 32 138 32C136.33 32 136 32.67 136 36C136 39.24 135.67 39.95 134.25 39.74C132.76 39.52 132.46 38.17 132.23 30.57C132.09 25.67 132.22 21.03 132.52 20.27C132.9 19.32 134.39 18.98 137.28 19.19ZM144.84 19.19C146.24 19.47 146.54 21.15 146.75 29.76C146.99 39.42 146.89 40 145 40C143.12 40 143.01 39.36 143.09 29.43C143.17 20.13 143.38 18.89 144.84 19.19ZM151.29 19.18C152.87 19.42 153.72 20.66 155.8 28.5L155.9 23.75C155.99 19.7 156.29 19 158 19C159.87 19 160 19.67 160 29.5C160 39.33 159.87 40 158 40C156.54 40 155.62 38.86 153.16 31.5L153.08 35.75C153.01 39.31 152.67 40 151 40C149.12 40 149 39.36 149.08 29.43C149.16 19.24 149.24 18.87 151.29 19.18ZM167.05 19C168.26 19 169.18 19.85 169.49 21.25C169.75 22.49 170.54 27.22 171.24 31.77C172.47 39.82 172.45 40.03 170.5 39.77C169.27 39.6 168.4 38.64 168.25 37.25C168.11 36.01 167.55 35 167 35C166.45 35 165.78 36.13 165.5 37.5C165.17 39.17 164.33 40 163 40C161.59 40 161.13 39.48 161.44 38.25C161.68 37.29 162.4 32.9 163.04 28.5C163.68 24.1 164.4 20.16 164.65 19.75C164.9 19.34 165.98 19 167.05 19ZM176 19C177.52 19 178.33 20.13 180.79 28.5L180.9 23.75C180.98 19.82 181.3 19.05 182.75 19.26C184.27 19.49 184.53 20.89 184.75 29.76C184.99 39.74 184.94 39.99 182.83 39.75C181.37 39.58 180.26 38.36 178.15 32.5L178.08 36.25C178.01 39.31 177.63 40 176 40C174.13 40 174 39.33 174 29.5C174 19.67 174.13 19 176 19ZM192 19.06C192.82 19.05 194.3 19.83 195.28 20.78C196.26 21.72 197.05 23.51 197.03 24.75C197.01 26.32 196.4 27 195 27C193.67 27 193 26.33 193 25C193 23.9 192.55 23 192 23C191.44 23 191 25.83 191 29.5C191 33.17 191.44 36 192 36C192.55 36 193 35.1 193 34C193 32.67 193.67 32 195 32C196.47 32 197 32.67 197 34.5C197 35.88 196.29 37.67 195.43 38.5C194.56 39.33 192.88 40.01 191.68 40.02C190.48 40.03 188.93 39.46 188.23 38.77C187.45 37.98 186.91 34.39 186.81 29.3C186.68 22.14 186.9 20.97 188.58 20.08C189.64 19.52 191.18 19.06 192 19.06ZM199 19L203.5 19C207.33 19 208 19.3 208 21C208 22.56 207.33 23 205 23C202.47 23 202 23.39 202 25.5C202 27.5 202.5 28 204.5 28C206.06 28 207 28.57 207 29.5C207 30.43 206.06 31 204.5 31C202.5 31 202 31.5 202 33.5C202 35.61 202.47 36 205 36C207.33 36 208 36.44 208 38C208 39.7 207.33 40 199 40L199 19ZM219.25 19.03C219.66 19.01 220.9 19.45 222 20C223.1 20.55 224 21.9 224 23C224 24.1 223.49 25.34 222.87 25.75C222.22 26.18 221.36 25.75 220.87 24.75C220.39 23.79 219.55 23 219 23C218.45 23 218 23.45 218 24C218 24.55 219.57 26.8 221.5 29C223.43 31.2 224.99 33.79 224.97 34.75C224.96 35.71 224.17 37.3 223.22 38.28C222.28 39.26 220.49 40.05 219.25 40.03C218.01 40.01 216.32 39.33 215.5 38.5C214.68 37.67 214 36.33 214 35.5C214 34.67 214.22 34 214.5 34C214.78 34 215.68 33.77 216.5 33.5C217.39 33.2 218 33.61 218 34.5C218 35.33 218.68 36 219.5 36C220.32 36 221 35.55 221 35C221 34.45 219.67 32.54 218.04 30.75C216.26 28.79 215 26.23 214.87 24.3C214.72 22.02 215.21 20.81 216.58 20.08C217.64 19.52 218.84 19.05 219.25 19.03ZM230.82 18.98C231.74 18.97 233.3 19.54 234.29 20.23C235.81 21.31 236.03 22.77 235.79 29.89C235.56 36.5 235.14 38.52 233.79 39.39C232.59 40.17 231.24 40.19 229.29 39.48C226.6 38.5 226.48 38.16 226.09 30.34C225.75 23.58 225.97 21.95 227.41 20.61C228.36 19.72 229.9 18.99 230.82 18.98ZM231 36C231.56 36 232 33.17 232 29.5C232 25.83 231.56 23 231 23C230.44 23 230 25.83 230 29.5C230 33.17 230.44 36 231 36ZM240.67 19C241.67 19 242 21.08 242 36L244.75 36.25C246.42 36.4 247.5 37.09 247.5 38C247.5 39.09 246.19 39.57 238 40L237.83 30.17C237.74 24.76 238.04 20.03 238.5 19.67C238.96 19.3 239.93 19 240.67 19ZM250.84 19.19C252.2 19.46 252.55 21.01 252.75 27.76C252.89 32.42 253.43 36 254 36C254.59 36 255 32.5 255 27.5C255 19.97 255.2 19.03 256.75 19.26C258.24 19.48 258.54 20.82 258.75 28.26C258.95 35.14 258.67 37.32 257.43 38.5C256.56 39.33 254.88 40.01 253.68 40.02C252.48 40.03 250.93 39.46 250.23 38.77C249.38 37.91 249 34.49 249.07 28.18C249.17 20.05 249.39 18.9 250.84 19.19ZM265 19C269.33 19 270 19.27 270 21C270 22.11 269.33 23 268.5 23C267.28 23 267 24.61 267 31.5C267 39.33 266.84 40 265 40C263.16 40 263 39.33 263 31.5C263 24.61 262.72 23 261.5 23C260.67 23 260 22.11 260 21C260 19.27 260.67 19 265 19ZM273.84 19.19C275.25 19.48 275.5 21.01 275.5 29.5C275.5 38.23 275.28 39.51 273.75 39.74C272.17 39.97 272.01 38.96 272.09 29.43C272.17 20.13 272.38 18.89 273.84 19.19ZM283 19.06C283.82 19.05 285.3 19.83 286.28 20.78C287.68 22.12 288.06 24.08 288.03 29.75C288.01 35.01 287.57 37.41 286.43 38.5C285.56 39.33 283.88 40.01 282.68 40.02C281.48 40.03 279.93 39.46 279.23 38.77C278.45 37.98 277.91 34.39 277.81 29.3C277.68 22.14 277.9 20.97 279.58 20.08C280.64 19.52 282.18 19.06 283 19.06ZM281.04 30.55C281.3 33.21 282.06 35.49 282.75 35.67C283.66 35.91 284 34.21 284 29.5C284 25.73 283.57 23 282.98 23C282.41 23 281.64 23.62 281.27 24.38C280.89 25.13 280.79 27.91 281.04 30.55ZM292 19C293.52 19 294.33 20.13 296.79 28.5L296.9 23.75C296.95 21.14 297.45 19 298 19C298.6 19 299 23.17 299 29.5C299 36.86 298.66 39.93 297.86 39.75C297.23 39.61 296.13 37.92 294.15 32.5L294.08 36.25C294.01 39.31 293.63 40 292 40C290.13 40 290 39.33 290 29.5C290 19.67 290.13 19 292 19ZM34 30L39 30L39 55L45 55L45 30L51 30L51 60L22 60L22 57.5C22 55.11 22.27 55 34 55L34 30ZM11 41.55C12.38 41.84 14.74 43.41 16.25 45.04C17.98 46.9 19 49.11 19 51C19 52.73 17.94 55.27 16.5 57C14.4 59.52 13.28 60 9.5 60C6.03 60 4.43 59.43 2.5 57.5C0.79 55.79 0 53.9 0 51.5C0 49.58 0.45 47.1 1 46C1.55 44.9 3.46 43.33 5.25 42.52C7.04 41.7 9.63 41.27 11 41.55ZM138 48C138.55 48 139 49.8 139 52C139 54.89 139.42 56 140.5 56C141.32 56 142 56.67 142 57.5C142 58.43 141.06 59 139.5 59C137.14 59 137 58.7 137 53.5C137 50.48 137.45 48 138 48ZM151.5 48C152.65 48 153 49.28 153 53.5C153 57.72 152.65 59 151.5 59C150.35 59 150 57.72 150 53.5C150 49.28 150.35 48 151.5 48ZM162.5 48C163.32 48 163.99 48.56 163.98 49.25C163.97 50.25 164.21 50.25 165.18 49.25C165.85 48.56 166.99 48 167.7 48C168.61 48 169 49.65 169 53.5C169 58.7 168.86 59 166.5 59C165.13 59 163.96 58.44 163.92 57.75C163.86 56.75 163.76 56.75 163.42 57.75C163.19 58.44 162.55 59 162 59C161.45 59 161 56.52 161 53.5C161 49.28 161.35 48 162.5 48ZM178.5 48C179.65 48 180 49.28 180 53.5C180 57.72 179.65 59 178.5 59C177.35 59 177 57.72 177 53.5C177 49.28 177.35 48 178.5 48ZM189.75 47.98C192.19 48 192.88 48.37 192.5 49.5C192.22 50.33 192 52.8 192 55C192 57.89 191.58 59 190.5 59C189.4 59 189 57.87 189.02 54.75C189.03 52.41 188.46 49.93 187.77 49.23C186.74 48.21 187.13 47.97 189.75 47.98ZM204 48C205.65 48 207 48.45 207 49C207 49.55 206.32 50 205.5 50C204.68 50 204 50.45 204 51C204 51.55 204.56 52.19 205.25 52.42C206.18 52.74 206.12 53.13 205 53.94C203.69 54.9 203.72 55.16 205.25 56.02C206.21 56.56 207 57.45 207 58C207 58.55 205.65 59 204 59C201.03 59 201 58.94 201 53.5C201 48.06 201.03 48 204 48ZM217.47 48C219.8 48 219.92 48.28 219.72 53.25C219.53 57.88 219.23 58.53 217.25 58.75C215.16 58.98 215 58.61 215 53.5C215 48.32 215.14 48 217.47 48ZM217.69 55C217.94 54.17 217.94 52.6 217.69 51.5C217.44 50.4 217.23 51.08 217.23 53C217.23 54.92 217.44 55.83 217.69 55Z" />
</svg>